<?xml version="1.0" encoding="UTF-8" standalone="no"?><!DOCTYPE svg PUBLIC "-//W3C//DTD SVG 1.1//EN" "http://www.w3.org/Graphics/SVG/1.1/DTD/svg11.dtd"><svg width="100%" height="100%" viewBox="0 0 78 62" version="1.1" xmlns="http://www.w3.org/2000/svg" xmlns:xlink="http://www.w3.org/1999/xlink" xml:space="preserve" xmlns:serif="http://www.serif.com/" style="fill-rule:evenodd;clip-rule:evenodd;"><path d="M61.437,2l-44.874,0c-4.935,0 -6.696,0.585 -8.493,1.545c-1.95,1.044 -3.481,2.575 -4.525,4.525c-0.96,1.797 -1.545,3.558 -1.545,8.493l-0,28.874c-0,4.935 0.585,6.696 1.545,8.493c1.044,1.95 2.575,3.481 4.525,4.525c1.797,0.96 3.558,1.545 8.493,1.545l44.874,-0c4.935,-0 6.696,-0.585 8.493,-1.545c1.95,-1.044 3.481,-2.575 4.525,-4.525c0.96,-1.797 1.545,-3.558 1.545,-8.493l-0,-28.874c-0,-4.935 -0.585,-6.696 -1.545,-8.493c-1.044,-1.95 -2.575,-3.481 -4.525,-4.525c-1.797,-0.96 -3.558,-1.545 -8.493,-1.545Z" style="fill:#1cb0f6;fill-rule:nonzero;"/><clipPath id="_clip1"><path d="M61.437,2l-44.874,0c-4.935,0 -6.696,0.585 -8.493,1.545c-1.95,1.044 -3.481,2.575 -4.525,4.525c-0.96,1.797 -1.545,3.558 -1.545,8.493l-0,28.874c-0,4.935 0.585,6.696 1.545,8.493c1.044,1.95 2.575,3.481 4.525,4.525c1.797,0.96 3.558,1.545 8.493,1.545l44.874,-0c4.935,-0 6.696,-0.585 8.493,-1.545c1.95,-1.044 3.481,-2.575 4.525,-4.525c0.96,-1.797 1.545,-3.558 1.545,-8.493l-0,-28.874c-0,-4.935 -0.585,-6.696 -1.545,-8.493c-1.044,-1.95 -2.575,-3.481 -4.525,-4.525c-1.797,-0.96 -3.558,-1.545 -8.493,-1.545Z" clip-rule="nonzero"/></clipPath><g clip-path="url(#_clip1)"><path d="M74,31l-70,-27l0,54l70,-27Z" style="fill:#eee;"/></g><path d="M61.437,2l-44.874,0c-4.935,0 -6.696,0.585 -8.493,1.545c-1.95,1.044 -3.481,2.575 -4.525,4.525c-0.96,1.797 -1.545,3.558 -1.545,8.493l-0,28.874c-0,4.935 0.585,6.696 1.545,8.493c1.044,1.95 2.575,3.481 4.525,4.525c1.797,0.96 3.558,1.545 8.493,1.545l44.874,-0c4.935,-0 6.696,-0.585 8.493,-1.545c1.95,-1.044 3.481,-2.575 4.525,-4.525c0.96,-1.797 1.545,-3.558 1.545,-8.493l-0,-28.874c-0,-4.935 -0.585,-6.696 -1.545,-8.493c-1.044,-1.95 -2.575,-3.481 -4.525,-4.525c-1.797,-0.96 -3.558,-1.545 -8.493,-1.545Z" style="fill:none;fill-rule:nonzero;stroke:#fff;stroke-width:4px;"/><path d="M15.07,18.997c1.429,-2.471 4.076,-3.997 6.93,-3.997c2.854,0 5.501,1.526 6.93,3.997c-2.854,0 -5.501,1.526 -6.93,3.997c-1.429,-2.471 -4.076,-3.997 -6.93,-3.997Z" style="fill:#7ac70c;fill-rule:nonzero;"/><path d="M28.93,18.997c4.389,0.004 7.999,3.617 7.999,8.006c0,1.403 -0.368,2.782 -1.069,3.997c-1.429,-2.471 -4.076,-3.997 -6.93,-3.997c1.429,-2.474 1.429,-5.532 0,-8.006Z" style="fill:#7ac70c;fill-rule:nonzero;"/><path d="M35.86,31c0.701,1.215 1.069,2.594 1.069,3.997c0,4.389 -3.61,8.002 -7.999,8.006c1.429,-2.474 1.429,-5.532 0,-8.006c2.854,-0 5.501,-1.526 6.93,-3.997Z" style="fill:#7ac70c;fill-rule:nonzero;"/><path d="M28.93,43.003c-1.429,2.471 -4.076,3.997 -6.93,3.997c-2.854,0 -5.501,-1.526 -6.93,-3.997c2.854,-0 5.501,-1.526 6.93,-3.997c1.429,2.471 4.076,3.997 6.93,3.997Z" style="fill:#7ac70c;fill-rule:nonzero;"/><path d="M15.07,43.003c-4.389,-0.004 -7.999,-3.617 -7.999,-8.006c-0,-1.403 0.368,-2.782 1.069,-3.997c1.429,2.471 4.076,3.997 6.93,3.997c-1.429,2.474 -1.429,5.532 -0,8.006Z" style="fill:#7ac70c;fill-rule:nonzero;"/><path d="M8.14,31c-0.701,-1.215 -1.069,-2.594 -1.069,-3.997c-0,-4.389 3.61,-8.002 7.999,-8.006c-1.429,2.474 -1.429,5.532 -0,8.006c-2.854,0 -5.501,1.526 -6.93,3.997Z" style="fill:#7ac70c;fill-rule:nonzero;"/><path d="M22,22.994c2.857,0.002 5.504,1.534 6.93,4.009c-2.854,0 -5.501,1.526 -6.93,3.997c1.428,-2.474 1.428,-5.532 -0,-8.006Z" style="fill:#1cb0f6;fill-rule:nonzero;"/><path d="M28.926,26.997c1.431,2.472 1.434,5.531 0.008,8.006c-1.429,-2.474 -4.077,-4.003 -6.934,-4.003c2.854,-0.003 5.499,-1.531 6.926,-4.003Z" style="fill:#1cb0f6;fill-rule:nonzero;"/><path d="M28.93,34.997c-1.426,2.475 -4.073,4.007 -6.93,4.009c1.428,-2.474 1.428,-5.532 -0,-8.006c1.429,2.471 4.076,3.997 6.93,3.997Z" style="fill:#1cb0f6;fill-rule:nonzero;"/><path d="M22,39.006c-2.857,-0.002 -5.504,-1.534 -6.93,-4.009c2.854,-0 5.501,-1.526 6.93,-3.997c-1.428,2.474 -1.428,5.532 -0,8.006Z" style="fill:#1cb0f6;fill-rule:nonzero;"/><path d="M15.074,35.003c-1.431,-2.472 -1.434,-5.531 -0.008,-8.006c1.429,2.474 4.077,4.003 6.934,4.003c-2.854,0.003 -5.499,1.531 -6.926,4.003Z" style="fill:#1cb0f6;fill-rule:nonzero;"/><path d="M15.07,27.003c1.426,-2.475 4.073,-4.007 6.93,-4.009c-1.428,2.474 -1.428,5.532 -0,8.006c-1.429,-2.471 -4.076,-3.997 -6.93,-3.997Z" style="fill:#1cb0f6;fill-rule:nonzero;"/></svg>