<svg xmlns="http://www.w3.org/2000/svg" width="250" height="250"><path d="M70.9 31.3A62.5 62.5 0 0 1 179.1 31.3A62.5 62.5 0 0 1 233.2 125A62.5 62.5 0 0 1 179.1 218.7A62.5 62.5 0 0 1 70.9 218.7A62.5 62.5 0 0 1 16.8 125A62.5 62.5 0 0 1 70.9 31.3" fill="#008113"/><path d="M125 62.5A62.5 62.5 0 0 1 179.1 31.3A62.5 62.5 0 0 1 179.1 93.8A62.5 62.5 0 0 1 233.2 125A62.5 62.5 0 0 1 179.1 156.2A62.5 62.5 0 0 1 179.1 218.7A62.5 62.5 0 0 1 125 187.5A62.5 62.5 0 0 1 70.9 218.7A62.5 62.5 0 0 1 70.9 156.2A62.5 62.5 0 0 1 16.8 125A62.5 62.5 0 0 1 70.9 93.8A62.5 62.5 0 0 1 70.9 31.3A62.5 62.5 0 0 1 125 62.5" fill="#fff"/><g fill="#0040a9"><path d="M125 62.5A62.5 62.5 0 0 1 179.1 93.8A62.5 62.5 0 0 0 125 125A62.5 62.5 0 0 0 125 62.5"/><path d="M179.1 93.8A62.5 62.5 0 0 1 179.1 156.2A62.5 62.5 0 0 0 125 125A62.5 62.5 0 0 0 179.1 93.8"/><path d="M179.1 156.2A62.5 62.5 0 0 1 125 187.5A62.5 62.5 0 0 0 125 125A62.5 62.5 0 0 0 179.1 156.2"/><path d="M125 187.5A62.5 62.5 0 0 1 70.9 156.2A62.5 62.5 0 0 0 125 125A62.5 62.5 0 0 0 125 187.5"/><path d="M70.9 156.2A62.5 62.5 0 0 1 70.9 93.8A62.5 62.5 0 0 0 125 125A62.5 62.5 0 0 0 70.9 156.2"/><path d="M70.9 93.8A62.5 62.5 0 0 1 125 62.5A62.5 62.5 0 0 0 125 125A62.5 62.5 0 0 0 70.9 93.8"/></g><script xmlns=""/></svg>